<svg data-name="2" xmlns="http://www.w3.org/2000/svg" width="103" height="103"><circle cx="51.5" cy="51.5" r="50" fill="none" stroke="#377091" stroke-width="3"/><path data-name="8%" d="M44.52 44.79a7.127 7.127 0 0 0-2.55-5.8 9.752 9.752 0 0 0-6.46-2.11 9.9 9.9 0 0 0-6.49 2.09 7.113 7.113 0 0 0-2.55 5.82 6.264 6.264 0 0 0 2.62 5.32 7.122 7.122 0 0 0-3.53 6.42 7.23 7.23 0 0 0 2.58 5.87q2.58 2.145 7.37 2.15 4.755 0 7.34-2.15a7.23 7.23 0 0 0 2.58-5.87 7.122 7.122 0 0 0-3.53-6.42 6.264 6.264 0 0 0 2.62-5.32zm-7.14-1.12a2.06 2.06 0 0 1 .72 1.65 2.087 2.087 0 0 1-.72 1.65 3.19 3.19 0 0 1-3.78.02 2.3 2.3 0 0 1 0-3.32 2.733 2.733 0 0 1 1.91-.63 2.766 2.766 0 0 1 1.87.63zm-4.16 13.9a2.5 2.5 0 0 1-.86-1.99 2.578 2.578 0 0 1 .86-2.04 3.9 3.9 0 0 1 4.57 0 2.53 2.53 0 0 1 .88 2.04 2.456 2.456 0 0 1-.88 1.99 3.9 3.9 0 0 1-4.57 0zm25.57-9.06a6.918 6.918 0 0 0 .02-9.69 6.709 6.709 0 0 0-4.94-1.98 6.817 6.817 0 0 0-4.98 1.98 6.82 6.82 0 0 0 0 9.67 6.794 6.794 0 0 0 4.98 2 6.711 6.711 0 0 0 4.92-1.98zm-5.34 12.81l17.52-18.97-2.66-1.52-17.48 19zm-1.01-16.23a2.018 2.018 0 0 1-.55-1.44 1.98 1.98 0 0 1 .55-1.41 1.855 1.855 0 0 1 1.39-.57 1.913 1.913 0 0 1 1.43.57 1.98 1.98 0 0 1 .55 1.41 2.038 2.038 0 0 1-.55 1.42 1.892 1.892 0 0 1-1.43.59 1.855 1.855 0 0 1-1.39-.57zM73.5 62.57a6.542 6.542 0 0 0 1.99-4.83 6.8 6.8 0 0 0-6.92-6.84 6.792 6.792 0 0 0-4.99 1.98 6.868 6.868 0 0 0 0 9.69 7.2 7.2 0 0 0 9.92 0zm-6.9-4.83a1.976 1.976 0 0 1 .55-1.44 1.855 1.855 0 0 1 1.39-.57 1.833 1.833 0 0 1 1.38.57 1.976 1.976 0 0 1 .55 1.44 1.941 1.941 0 0 1-.55 1.39 1.814 1.814 0 0 1-1.38.59 1.855 1.855 0 0 1-1.39-.57 1.938 1.938 0 0 1-.55-1.41z" fill="#377091" fill-rule="evenodd"/></svg>