<svg data-name="1" xmlns="http://www.w3.org/2000/svg" width="103" height="103"><circle cx="51.5" cy="51.5" r="50" fill="none" stroke="#377091" stroke-width="3"/><path data-name="4%" d="M44.083 53.75v-4.78h-6.764v4.78H33.1l8.017-16.34H33.6l-7.942 16.28v6.26h11.666v4.06h6.764v-4.06h2.66v-6.2h-2.66zm14.307-5.24a6.9 6.9 0 0 0 .019-9.69 6.7 6.7 0 0 0-4.94-1.98 6.823 6.823 0 0 0-4.978 1.98 6.811 6.811 0 0 0 0 9.67 6.8 6.8 0 0 0 4.978 2 6.712 6.712 0 0 0 4.921-1.98zm-5.339 12.81l17.518-18.97-2.66-1.52-17.48 19zm-1.007-16.23a1.989 1.989 0 0 1-.551-1.44 1.951 1.951 0 0 1 .551-1.41 1.848 1.848 0 0 1 1.387-.57 1.893 1.893 0 0 1 1.425.57 1.951 1.951 0 0 1 .551 1.41 2.008 2.008 0 0 1-.551 1.42 1.872 1.872 0 0 1-1.425.59 1.848 1.848 0 0 1-1.387-.57zm21.052 17.48a6.547 6.547 0 0 0 2-4.83 6.79 6.79 0 0 0-6.916-6.84 6.806 6.806 0 0 0-5 1.98 6.881 6.881 0 0 0 0 9.69 6.806 6.806 0 0 0 5 1.98 6.712 6.712 0 0 0 4.92-1.98zm-6.9-4.83a1.989 1.989 0 0 1 .551-1.44 1.973 1.973 0 0 1 2.774 0 1.989 1.989 0 0 1 .551 1.44 1.954 1.954 0 0 1-.551 1.39 1.829 1.829 0 0 1-1.387.59 1.848 1.848 0 0 1-1.387-.57 1.951 1.951 0 0 1-.551-1.41z" fill="#377091" fill-rule="evenodd"/></svg>