<svg xmlns="http://www.w3.org/2000/svg" width="131.47" height="43.78"><path data-name="1500" d="M.01 4.96l2.58 9.06 7.32-1.86v30.72h10.74v-42h-9.24zm38.94 10.68l.3-4.5h14.82V.88H29.35l-1.74 24.66h13.44a5.057 5.057 0 0 1 3.33 1.02 3.952 3.952 0 0 1 0 5.73 5.254 5.254 0 0 1-3.51 1.05q-4.86 0-6.18-4.38l-9.36 5.34a13.713 13.713 0 0 0 5.94 7.11 18.775 18.775 0 0 0 9.6 2.37 16.522 16.522 0 0 0 11.04-3.75q4.44-3.75 4.44-10.59 0-6.6-4.11-10.2a15.052 15.052 0 0 0-10.29-3.6h-3zm54.72 6.24q0-9.96-4.59-15.93T76.27-.02q-8.22 0-12.81 5.97t-4.59 15.93q0 9.96 4.59 15.93t12.81 5.97q8.22 0 12.81-5.97t4.59-15.93zm-17.4-11.46q6.66 0 6.66 11.46t-6.66 11.46q-6.66 0-6.66-11.46t6.66-11.46zm55.2 11.46q0-9.96-4.59-15.93T114.07-.02q-8.22 0-12.81 5.97t-4.59 15.93q0 9.96 4.59 15.93t12.81 5.97q8.22 0 12.81-5.97t4.59-15.93zm-17.4-11.46q6.66 0 6.66 11.46t-6.66 11.46q-6.66 0-6.66-11.46t6.66-11.46z" fill="#2096ba" fill-rule="evenodd"/></svg>