<svg xmlns="http://www.w3.org/2000/svg" width="68.406" height="43.78"><path data-name="30" d="M28.618 9.34V.88h-27.3v10.26h14.1l-6.72 8.22 4.14 6.12h2.28a5.258 5.258 0 0 1 3.51 1.05 3.555 3.555 0 0 1 1.23 2.85 3.645 3.645 0 0 1-1.23 2.88 5.159 5.159 0 0 1-3.51 1.08 5.541 5.541 0 0 1-5.76-4.38l-9.36 5.34a13.629 13.629 0 0 0 5.85 7.08 17.835 17.835 0 0 0 9.27 2.4 16.694 16.694 0 0 0 10.98-3.66q4.438-3.66 4.44-10.44a11.414 11.414 0 0 0-2.46-7.38 13.133 13.133 0 0 0-6.48-4.32zm39.779 12.54q0-9.96-4.59-15.93T50.997-.02q-8.221 0-12.81 5.97t-4.59 15.93q0 9.96 4.59 15.93t12.81 5.97q8.22 0 12.81-5.97t4.59-15.93zm-17.4-11.46q6.66 0 6.66 11.46t-6.66 11.46q-6.66 0-6.66-11.46t6.66-11.46z" fill="#2096ba" fill-rule="evenodd"/></svg>