<svg xmlns="http://www.w3.org/2000/svg" width="69.907" height="108.13" viewBox="0 0 69.907 108.13">
  <metadata><?xpacket begin="﻿" id="W5M0MpCehiHzreSzNTczkc9d"?>
<x:xmpmeta xmlns:x="adobe:ns:meta/" x:xmptk="Adobe XMP Core 5.6-c142 79.160924, 2017/07/13-01:06:39        ">
   <rdf:RDF xmlns:rdf="http://www.w3.org/1999/02/22-rdf-syntax-ns#">
      <rdf:Description rdf:about=""/>
   </rdf:RDF>
</x:xmpmeta>
                                                                                                    
                                                                                                    
                                                                                                    
                                                                                                    
                                                                                                    
                                                                                                    
                                                                                                    
                                                                                                    
                                                                                                    
                                                                                                    
                                                                                                    
                                                                                                    
                                                                                                    
                                                                                                    
                                                                                                    
                                                                                                    
                                                                                                    
                                                                                                    
                                                                                                    
                                                                                                    
                           
<?xpacket end="w"?></metadata>
<defs>
    <style>
      .cls-1 {
        fill: #fff;
        fill-rule: evenodd;
      }
    </style>
  </defs>
  <path id="_2" data-name="2" class="cls-1" d="M713.3,3212.81a15.468,15.468,0,0,1-7.07,6.72q-4.258,1.875-15.664,1.87H662.911q4.842-4.365,23.984-25.31,13.125-14.3,18.906-26.8a37.919,37.919,0,0,0,3.907-16.25,26.393,26.393,0,0,0-8.633-19.69q-8.634-8.28-21.524-8.28-12.032,0-20.156,7.74T649.317,3155h2.891q2.967-8.835,9.179-13.4a23.052,23.052,0,0,1,14.024-4.57,19.685,19.685,0,0,1,14.765,6.48q6.171,6.48,6.172,16.56,0,10.71-6.953,22.43-10.86,18.27-43.125,47.42v3.28h62.5l7.422-20.39H713.3Z" transform="translate(-646.281 -3125.06)"/>
</svg>
