<svg xmlns="http://www.w3.org/2000/svg" width="60.25" height="110.32" viewBox="0 0 60.25 110.32">
  <metadata><?xpacket begin="﻿" id="W5M0MpCehiHzreSzNTczkc9d"?>
<x:xmpmeta xmlns:x="adobe:ns:meta/" x:xmptk="Adobe XMP Core 5.6-c142 79.160924, 2017/07/13-01:06:39        ">
   <rdf:RDF xmlns:rdf="http://www.w3.org/1999/02/22-rdf-syntax-ns#">
      <rdf:Description rdf:about=""/>
   </rdf:RDF>
</x:xmpmeta>
                                                                                                    
                                                                                                    
                                                                                                    
                                                                                                    
                                                                                                    
                                                                                                    
                                                                                                    
                                                                                                    
                                                                                                    
                                                                                                    
                                                                                                    
                                                                                                    
                                                                                                    
                                                                                                    
                                                                                                    
                                                                                                    
                                                                                                    
                                                                                                    
                                                                                                    
                                                                                                    
                           
<?xpacket end="w"?></metadata>
<defs>
    <style>
      .cls-1 {
        fill: #fff;
        fill-rule: evenodd;
      }
    </style>
  </defs>
  <path id="_3" data-name="3" class="cls-1" d="M653.536,3148.67q8.124-12.975,20.156-12.97a17.247,17.247,0,0,1,12.617,4.96q5.039,4.965,5.039,13.01a22.226,22.226,0,0,1-11.836,20.15,32.247,32.247,0,0,1-12.383,4.46v2.34h2.5a29.85,29.85,0,0,1,12.071,2.58,32.989,32.989,0,0,1,9.258,5.7,24.165,24.165,0,0,1,4.765,7.62,26.424,26.424,0,0,1,2.266,10.66,20.745,20.745,0,0,1-5.9,14.85,18.594,18.594,0,0,1-13.867,6.17,25.1,25.1,0,0,1-6.25-.78,47.874,47.874,0,0,1-6.445-2.97,46.083,46.083,0,0,0-5.977-2.81,13.174,13.174,0,0,0-3.906-.63,6.35,6.35,0,0,0-4.453,1.72,5.344,5.344,0,0,0-1.875,4.06c0,2.14,1.3,4.1,3.906,5.9s7.317,2.7,14.141,2.7q22.734,0,34.062-13.91a35.718,35.718,0,0,0,8.125-23.2,28.648,28.648,0,0,0-5-16.84q-5-7.155-14.765-10.98,14.453-12.33,14.453-23.98a20.35,20.35,0,0,0-5.078-13.13q-6.8-8.28-19.532-8.28-10.312,0-17.226,5.82t-11.445,16.53Z" transform="translate(-649.313 -3125.06)"/>
</svg>
