<svg id="_4" data-name="4" xmlns="http://www.w3.org/2000/svg" width="103" height="103" viewBox="0 0 103 103">
  <metadata><?xpacket begin="﻿" id="W5M0MpCehiHzreSzNTczkc9d"?>
<x:xmpmeta xmlns:x="adobe:ns:meta/" x:xmptk="Adobe XMP Core 5.6-c142 79.160924, 2017/07/13-01:06:39        ">
   <rdf:RDF xmlns:rdf="http://www.w3.org/1999/02/22-rdf-syntax-ns#">
      <rdf:Description rdf:about=""/>
   </rdf:RDF>
</x:xmpmeta>
                                                                                                    
                                                                                                    
                                                                                                    
                                                                                                    
                                                                                                    
                                                                                                    
                                                                                                    
                                                                                                    
                                                                                                    
                                                                                                    
                                                                                                    
                                                                                                    
                                                                                                    
                                                                                                    
                                                                                                    
                                                                                                    
                                                                                                    
                                                                                                    
                                                                                                    
                                                                                                    
                           
<?xpacket end="w"?></metadata>
<defs>
    <style>
      .cls-1, .cls-2 {
        fill: #377091;
      }

      .cls-1 {
        fill-opacity: 0;
        stroke: #377091;
        stroke-width: 3px;
      }

      .cls-2 {
        fill-rule: evenodd;
      }
    </style>
  </defs>
  <circle class="cls-1" cx="51.5" cy="51.5" r="50"/>
  <path id="_6_" data-name="6%" class="cls-2" d="M850.368,3455.91h-7.714l-7.867,12.28a9.363,9.363,0,0,0-1.672,5.51,8.885,8.885,0,0,0,2.775,6.76,11.469,11.469,0,0,0,14.592,0,9.658,9.658,0,0,0,.455-13.05,9.734,9.734,0,0,0-6.194-3.02Zm-9.539,20.12a2.957,2.957,0,0,1-.912-2.33,3.053,3.053,0,0,1,.912-2.36,3.759,3.759,0,0,1,4.712,0,3.054,3.054,0,0,1,.913,2.36,2.961,2.961,0,0,1-.932,2.32A3.749,3.749,0,0,1,840.829,3476.03Zm25.1-9.02a6.9,6.9,0,0,0,.019-9.69,6.7,6.7,0,0,0-4.94-1.98,6.823,6.823,0,0,0-4.978,1.98,6.811,6.811,0,0,0,0,9.67,6.8,6.8,0,0,0,4.978,2A6.71,6.71,0,0,0,865.928,3467.01Zm-5.339,12.81,17.518-18.97-2.659-1.52-17.481,19Zm-1.007-16.23a1.989,1.989,0,0,1-.551-1.44,1.951,1.951,0,0,1,.551-1.41,1.848,1.848,0,0,1,1.387-.57,1.893,1.893,0,0,1,1.425.57,1.951,1.951,0,0,1,.551,1.41,2.008,2.008,0,0,1-.551,1.42,1.872,1.872,0,0,1-1.425.59A1.848,1.848,0,0,1,859.582,3463.59Zm21.052,17.48a6.547,6.547,0,0,0,2-4.83,6.79,6.79,0,0,0-6.916-6.84,6.806,6.806,0,0,0-5,1.98,6.881,6.881,0,0,0,0,9.69,6.806,6.806,0,0,0,5,1.98A6.71,6.71,0,0,0,880.634,3481.07Zm-6.9-4.83a1.989,1.989,0,0,1,.551-1.44,1.973,1.973,0,0,1,2.774,0,1.989,1.989,0,0,1,.551,1.44,1.954,1.954,0,0,1-.551,1.39,1.829,1.829,0,0,1-1.387.59,1.848,1.848,0,0,1-1.387-.57,1.951,1.951,0,0,1-.551-1.41h0Z" transform="translate(-808.5 -3418.5)"/>
</svg>
