<svg id="_3" data-name="3" xmlns="http://www.w3.org/2000/svg" width="103" height="103" viewBox="0 0 103 103">
  <metadata><?xpacket begin="﻿" id="W5M0MpCehiHzreSzNTczkc9d"?>
<x:xmpmeta xmlns:x="adobe:ns:meta/" x:xmptk="Adobe XMP Core 5.6-c142 79.160924, 2017/07/13-01:06:39        ">
   <rdf:RDF xmlns:rdf="http://www.w3.org/1999/02/22-rdf-syntax-ns#">
      <rdf:Description rdf:about=""/>
   </rdf:RDF>
</x:xmpmeta>
                                                                                                    
                                                                                                    
                                                                                                    
                                                                                                    
                                                                                                    
                                                                                                    
                                                                                                    
                                                                                                    
                                                                                                    
                                                                                                    
                                                                                                    
                                                                                                    
                                                                                                    
                                                                                                    
                                                                                                    
                                                                                                    
                                                                                                    
                                                                                                    
                                                                                                    
                                                                                                    
                           
<?xpacket end="w"?></metadata>
<defs>
    <style>
      .cls-1 {
        fill: none;
        stroke: #377091;
        stroke-width: 3px;
      }

      .cls-2 {
        fill: #377091;
        fill-rule: evenodd;
      }
    </style>
  </defs>
  <circle class="cls-1" cx="51.5" cy="51.5" r="50"/>
  <path id="_10_" data-name="10%" class="cls-2" d="M1225.35,3458.5l1.63,5.74,4.64-1.18v19.45h6.8v-26.6h-5.85Zm38.53,10.71q0-6.3-2.91-10.08a10.572,10.572,0,0,0-16.22,0q-2.91,3.78-2.91,10.08t2.91,10.09a10.59,10.59,0,0,0,16.22,0Q1263.88,3475.52,1263.88,3469.21Zm-11.02-7.25q4.215,0,4.22,7.25t-4.22,7.26q-4.215,0-4.22-7.26T1252.86,3461.96Zm24.45,5.05a6.893,6.893,0,0,0,.02-9.69,6.677,6.677,0,0,0-4.94-1.98,6.81,6.81,0,0,0-4.97,1.98,6.8,6.8,0,0,0,0,9.67,6.787,6.787,0,0,0,4.97,2A6.711,6.711,0,0,0,1277.31,3467.01Zm-5.33,12.81,17.51-18.97-2.66-1.52-17.48,19Zm-1.01-16.23a1.976,1.976,0,0,1-.55-1.44,1.938,1.938,0,0,1,.55-1.41,1.855,1.855,0,0,1,1.39-.57,1.891,1.891,0,0,1,1.42.57,1.938,1.938,0,0,1,.55,1.41,1.994,1.994,0,0,1-.55,1.42A1.992,1.992,0,0,1,1270.97,3463.59Zm21.05,17.48a6.869,6.869,0,0,0,.02-9.67,6.671,6.671,0,0,0-4.94-2,6.814,6.814,0,0,0-5,1.98,6.893,6.893,0,0,0,0,9.69,6.814,6.814,0,0,0,5,1.98A6.711,6.711,0,0,0,1292.02,3481.07Zm-6.9-4.83a2.018,2.018,0,0,1,.55-1.44,1.98,1.98,0,0,1,2.78,0,1.976,1.976,0,0,1,.55,1.44,1.941,1.941,0,0,1-.55,1.39,1.835,1.835,0,0,1-1.39.59,1.855,1.855,0,0,1-1.39-.57,1.98,1.98,0,0,1-.55-1.41h0Z" transform="translate(-1208.5 -3418.5)"/>
</svg>
