<svg xmlns="http://www.w3.org/2000/svg" width="69.907" height="108.13"><path data-name="2" d="M67.019 87.75a15.468 15.468 0 0 1-7.07 6.72q-4.258 1.875-15.664 1.87H16.63q4.842-4.365 23.984-25.31 13.125-14.3 18.906-26.8a37.919 37.919 0 0 0 3.907-16.25 26.393 26.393 0 0 0-8.633-19.69Q46.16.01 33.27.01q-12.032 0-20.156 7.74T3.036 29.94h2.891q2.967-8.835 9.179-13.4a23.052 23.052 0 0 1 14.024-4.57 19.685 19.685 0 0 1 14.765 6.48q6.171 6.48 6.172 16.56 0 10.71-6.953 22.43-10.86 18.27-43.125 47.42v3.28h62.5l7.422-20.39h-2.892z" fill="#fff" fill-rule="evenodd"/></svg>